<svg width="180" height="55" viewBox="0 0 180 55" fill="none" xmlns="http://www.w3.org/2000/svg">
<g clip-path="url(#clip0_2012_4686)">
<g clip-path="url(#clip1_2012_4686)">
<path d="M65.788 20.8942H74.0421V23.0052H68.2762V26.6816H73.571V28.794H68.2762V34.6571H65.7894V20.8942H65.788Z" fill="white"/>
<path d="M81.7581 25.0048H84.2449V34.6585H81.7581V33.5273C81.2499 34.3 80.2506 34.8842 79.0258 34.8842C76.8016 34.8842 75.5397 33.3574 75.5397 31.2264V25.0048H78.0265V30.5851C78.0265 31.7348 78.6289 32.6775 79.8737 32.6775C81.1186 32.6775 81.7581 31.7163 81.7581 30.5851V25.0048Z" fill="white"/>
<path d="M91.4142 32.7346C91.9609 32.7346 92.4506 32.5647 92.866 32.2262V34.4314C92.3763 34.7142 91.6411 34.8842 90.9245 34.8842C88.9645 34.8842 87.5141 33.7344 87.5141 31.5277V26.9844H85.9309V25.0048H87.5141V22.761L90.0009 21.9697V25.0048H92.5819V26.9844H90.0009V31.2635C90.0009 32.2247 90.5291 32.7346 91.4142 32.7346Z" fill="white"/>
<path d="M100.967 25.0048H103.454V34.6585H100.967V33.5273C100.459 34.3 99.4599 34.8842 98.235 34.8842C96.0109 34.8842 94.7489 33.3574 94.7489 31.2264V25.0048H97.2357V30.5851C97.2357 31.7348 97.8381 32.6775 99.083 32.6775C100.328 32.6775 100.967 31.7163 100.967 30.5851V25.0048Z" fill="white"/>
<path d="M111.82 27.3429C111.613 27.3243 111.424 27.3058 111.236 27.3058C109.804 27.3058 108.692 28.0785 108.692 29.9452V34.6585H106.205V25.0048H108.692V26.4945C109.22 25.5704 110.218 24.8348 111.537 24.8348C111.631 24.8348 111.725 24.8534 111.82 24.8534V27.3415V27.3429Z" fill="white"/>
<path d="M117.957 24.7791C121.009 24.7791 122.555 27.023 122.555 29.8881C122.555 30.0766 122.555 30.2651 122.536 30.4722H115.339C115.603 31.9619 116.883 32.8103 118.655 32.8103C119.785 32.8103 121.01 32.4147 121.84 31.7363V33.923C120.879 34.5828 119.56 34.8842 118.354 34.8842C115.32 34.8842 113.002 32.7532 113.002 29.8495C113.002 26.9458 115.32 24.7777 117.958 24.7777L117.957 24.7791ZM115.413 28.814H120.218C120.105 27.7957 119.333 26.7773 117.92 26.7773C116.713 26.7773 115.752 27.5686 115.413 28.814Z" fill="white"/>
<path d="M142.284 34.6585H139.608L138.214 31.6991H132.354L130.959 34.6585H128.264L135.274 20.3486L142.285 34.6585H142.284ZM133.276 29.7381H137.29L135.274 25.4776L133.277 29.7381H133.276Z" fill="white"/>
<path d="M148.928 22.4225C148.645 22.2711 148.344 22.1968 148.004 22.1968C147.137 22.1968 146.554 22.7624 146.554 23.7808V25.0062H148.721V26.9858H146.554V34.6599H144.104V26.9858H142.521V25.0062H144.104V23.6294C144.104 21.4798 145.423 20.1044 147.514 20.1044C148.08 20.1044 148.551 20.1801 148.928 20.35V22.4239V22.4225Z" fill="white"/>
<path d="M156.011 27.3429C155.804 27.3243 155.616 27.3058 155.427 27.3058C153.995 27.3058 152.883 28.0785 152.883 29.9452V34.6585H150.397V25.0048H152.883V26.4945C153.412 25.5704 154.409 24.8348 155.729 24.8348C155.823 24.8348 155.917 24.8534 156.011 24.8534V27.3415V27.3429Z" fill="white"/>
<path d="M160.474 22.064C160.474 22.8752 159.833 23.4965 159.023 23.4965H159.005C158.194 23.4965 157.553 22.8738 157.553 22.064C157.553 21.2541 158.194 20.6314 159.005 20.6314H159.023C159.834 20.6314 160.474 21.2541 160.474 22.064ZM160.267 25.0048V34.6585H157.78V25.0048H160.267Z" fill="white"/>
<path d="M169.71 31.9805V34.3557C169.108 34.6957 168.315 34.8842 167.467 34.8842C164.716 34.8842 162.361 32.7346 162.361 29.8309C162.361 26.9273 164.716 24.7777 167.467 24.7777C168.315 24.7777 169.106 24.9662 169.71 25.3062V27.6814C169.126 27.2286 168.504 26.9644 167.619 26.9644C166.074 26.9644 164.735 28.1527 164.735 29.8295C164.735 31.5063 166.073 32.7146 167.619 32.7146C168.504 32.7146 169.126 32.4504 169.71 31.9791V31.9805Z" fill="white"/>
<path d="M177.437 33.923C177.079 34.3758 176.175 34.8842 174.969 34.8842C173.028 34.8842 171.35 33.6402 171.35 31.6606C171.35 29.7938 173.028 28.5313 175.043 28.5313C176.137 28.5313 177.04 28.9654 177.436 29.3796V28.6627C177.436 27.6829 176.606 26.9287 175.156 26.9287C174.138 26.9287 173.215 27.2687 172.442 27.72V25.5333C173.196 25.1191 174.421 24.7792 175.684 24.7792C178.265 24.7792 179.848 26.1932 179.848 28.5498V34.6586H177.436V33.923H177.437ZM175.534 30.2652C174.555 30.2652 173.631 30.7736 173.631 31.6606C173.631 32.5476 174.555 33.0375 175.534 33.0375C176.514 33.0375 177.476 32.5476 177.476 31.6606C177.476 30.7736 176.497 30.2652 175.534 30.2652Z" fill="white"/>
<path d="M68.1207 42.1941V47.5673H67.721V42.1941H65.6881V41.8328H70.1549V42.1941H68.1221H68.1207Z" fill="#FFE664"/>
<path d="M71.4425 47.5659H71.0499V41.5971H71.4425V44.338C71.6395 43.8738 72.1334 43.5281 72.7373 43.5281C73.6795 43.5281 74.182 44.2423 74.182 45.0835V47.5659H73.7894V45.1621C73.7894 44.4551 73.404 43.8895 72.6202 43.8895C71.9136 43.8895 71.4425 44.4622 71.4425 45.1692V47.5644V47.5659Z" fill="#FFE664"/>
<path d="M77.3255 43.5281C78.4947 43.5281 79.217 44.5022 79.2013 45.6491H75.6995C75.7309 46.5918 76.469 47.3059 77.4811 47.3059C78.0536 47.3059 78.596 47.0931 78.9729 46.6932V47.1245C78.5889 47.463 78.0464 47.6587 77.4583 47.6587C76.2263 47.6587 75.3226 46.7403 75.3226 45.5934C75.3226 44.4465 76.2248 43.5281 77.3241 43.5281H77.3255ZM75.7166 45.3263H78.8102C78.7316 44.5251 78.1906 43.8738 77.3269 43.8738C76.5104 43.8738 75.8437 44.4937 75.7181 45.3263H75.7166Z" fill="#FFE664"/>
<path d="M82.5618 41.8328H85.6624V42.1941H82.9615V44.4722H85.4269V44.8336H82.9615V47.5673H82.5618V41.8342V41.8328Z" fill="#FFE664"/>
<path d="M89.2113 43.6224H89.6039V47.5658H89.2113V46.8517C89.0143 47.3145 88.5204 47.6601 87.9165 47.6601C86.9743 47.6601 86.4875 46.946 86.4875 46.1047V43.6224H86.8801V46.0262C86.8801 46.7403 87.2484 47.2988 88.0336 47.2988C88.7402 47.2988 89.2113 46.7332 89.2113 46.019V43.6238V43.6224Z" fill="#FFE664"/>
<path d="M91.4598 47.5658H91.0673V43.6224H91.4598V44.3365C91.6568 43.8723 92.1508 43.5267 92.7546 43.5267C93.6968 43.5267 94.1993 44.2408 94.1993 45.0821V47.5644H93.8067V45.1606C93.8067 44.4536 93.4213 43.888 92.6376 43.888C91.9309 43.888 91.4598 44.4608 91.4598 45.1678V47.563V47.5658Z" fill="#FFE664"/>
<path d="M99.003 44.6436V41.5956H99.3956V47.5644H99.003V46.5432C98.7675 47.1802 98.0694 47.6587 97.3385 47.6587C96.1921 47.6587 95.337 46.7246 95.337 45.5934C95.337 44.4622 96.1921 43.5281 97.3385 43.5281C98.068 43.5281 98.7675 44.0066 99.003 44.6436ZM95.7296 45.5934C95.7296 46.536 96.4677 47.3059 97.3785 47.3059C98.2892 47.3059 99.0187 46.536 99.0187 45.5934C99.0187 44.6507 98.2807 43.8809 97.3785 43.8809C96.4762 43.8809 95.7296 44.6507 95.7296 45.5934Z" fill="#FFE664"/>
<path d="M104.822 41.9499C104.703 41.8942 104.578 41.8713 104.422 41.8713C103.982 41.8713 103.661 42.1855 103.661 42.7826V43.6224H104.736V43.9609H103.661V47.5659H103.269V43.9609H102.546V43.6224H103.269V42.7426C103.269 42.0127 103.724 41.5014 104.391 41.5014C104.539 41.5014 104.689 41.5171 104.822 41.5728V41.9499Z" fill="#FFE664"/>
<path d="M105.147 45.5948C105.147 44.4565 106.065 43.5295 107.18 43.5295C108.295 43.5295 109.213 44.4565 109.213 45.5948C109.213 46.7332 108.295 47.6601 107.18 47.6601C106.065 47.6601 105.147 46.7332 105.147 45.5948ZM105.54 45.5948C105.54 46.5446 106.269 47.3073 107.18 47.3073C108.091 47.3073 108.82 46.5461 108.82 45.5948C108.82 44.6436 108.091 43.8823 107.18 43.8823C106.269 43.8823 105.54 44.6436 105.54 45.5948Z" fill="#FFE664"/>
<path d="M112.209 43.968C111.55 43.8424 110.749 44.2123 110.749 45.3978V47.5659H110.356V43.6224H110.749V44.4465C110.953 43.8809 111.518 43.4653 112.209 43.5753V43.968Z" fill="#FFE664"/>
<path d="M120.194 47.5659H119.77L118.937 45.6805H116.182L115.35 47.5659H114.926L117.564 41.6442L120.194 47.5659ZM116.339 45.3349H118.789L117.564 42.554L116.339 45.3349Z" fill="#FFE664"/>
<path d="M122.71 41.9499C122.592 41.8942 122.466 41.8713 122.311 41.8713C121.871 41.8713 121.55 42.1855 121.55 42.7826V43.6224H122.625V43.9609H121.55V47.5659H121.157V43.9609H120.435V43.6224H121.157V42.7426C121.157 42.0127 121.613 41.5014 122.279 41.5014C122.428 41.5014 122.578 41.5171 122.71 41.5728V41.9499Z" fill="#FFE664"/>
<path d="M125.393 43.968C124.733 43.8424 123.932 44.2123 123.932 45.3978V47.5659H123.54V43.6224H123.932V44.4465C124.137 43.8809 124.702 43.4653 125.393 43.5753V43.968Z" fill="#FFE664"/>
<path d="M126.879 42.3512C126.879 42.524 126.745 42.6497 126.581 42.6497H126.572C126.399 42.6497 126.274 42.524 126.274 42.3512C126.274 42.1784 126.399 42.0527 126.572 42.0527H126.581C126.745 42.0527 126.879 42.1855 126.879 42.3512ZM126.769 43.6238V47.5672H126.376V43.6238H126.769Z" fill="#FFE664"/>
<path d="M131.123 46.8203V47.2673C130.818 47.5116 130.394 47.6601 129.954 47.6601C128.823 47.6601 127.905 46.7332 127.905 45.5948C127.905 44.4565 128.823 43.5295 129.954 43.5295C130.394 43.5295 130.818 43.6781 131.123 43.9223V44.3694C130.818 44.048 130.425 43.8909 129.961 43.8909C129.035 43.8909 128.289 44.645 128.289 45.5948C128.289 46.5446 129.035 47.2988 129.961 47.2988C130.425 47.2988 130.816 47.1416 131.123 46.8203Z" fill="#FFE664"/>
<path d="M134.612 47.0874C134.432 47.3545 134.015 47.6601 133.427 47.6601C132.626 47.6601 131.944 47.166 131.944 46.4118C131.944 45.6577 132.626 45.1635 133.427 45.1635C134.015 45.1635 134.432 45.4706 134.612 45.7291V44.8807C134.612 44.3308 134.172 43.8995 133.544 43.8995C133.089 43.8995 132.705 44.048 132.382 44.2609V43.8609C132.656 43.6881 133.089 43.531 133.576 43.531C134.408 43.531 134.996 44.0723 134.996 44.8507V47.5687H134.611V47.0903L134.612 47.0874ZM133.459 45.5006C132.87 45.5006 132.312 45.8377 132.312 46.4118C132.312 46.986 132.869 47.3231 133.459 47.3231C134.048 47.3231 134.621 46.986 134.621 46.4118C134.621 45.8377 134.048 45.5006 133.459 45.5006Z" fill="#FFE664"/>
<path d="M135.991 41.8328H136.462L136.368 43.6395H136.078L135.991 41.8328Z" fill="#FFE664"/>
<path d="M138.491 47.323C139.016 47.323 139.417 47.056 139.417 46.5846C139.417 46.2633 139.26 46.0904 138.861 45.8933L138.162 45.5406C137.731 45.3292 137.362 45.1164 137.362 44.5665C137.362 43.9537 137.887 43.5295 138.571 43.5295C139.01 43.5295 139.379 43.6781 139.677 43.9223V44.3537C139.356 44.0637 138.995 43.8666 138.571 43.8666C138.108 43.8666 137.738 44.1251 137.738 44.5493C137.738 44.9107 137.997 45.0435 138.382 45.2406L139.08 45.5863C139.551 45.8134 139.803 46.089 139.803 46.5761C139.803 47.2273 139.215 47.6601 138.492 47.6601C137.983 47.6601 137.543 47.4716 137.283 47.2516V46.8046C137.636 47.1417 138.044 47.323 138.492 47.323H138.491Z" fill="#FFE664"/>
<path d="M143.21 41.8328H146.311V42.1941H143.61V44.4722H146.075V44.8336H143.61V47.5673H143.21V41.8342V41.8328Z" fill="#FFE664"/>
<path d="M149.858 43.6224H150.251V47.5658H149.858V46.8517C149.661 47.3145 149.167 47.6601 148.564 47.6601C147.621 47.6601 147.135 46.946 147.135 46.1047V43.6224H147.527V46.0262C147.527 46.7403 147.896 47.2988 148.681 47.2988C149.387 47.2988 149.858 46.7332 149.858 46.019V43.6238V43.6224Z" fill="#FFE664"/>
<path d="M153.093 47.3145C153.392 47.3145 153.634 47.2288 153.847 47.0631V47.4316C153.69 47.5487 153.4 47.6587 153.062 47.6587C152.34 47.6587 151.9 47.1802 151.9 46.4261V43.9594H151.177V43.6209H151.9V42.4355L152.292 42.2469V43.6209H153.564V43.9594H152.292V46.3947C152.292 46.9445 152.551 47.313 153.093 47.313V47.3145Z" fill="#FFE664"/>
<path d="M157.447 43.6224H157.84V47.5658H157.447V46.8517C157.25 47.3145 156.756 47.6601 156.152 47.6601C155.21 47.6601 154.724 46.946 154.724 46.1047V43.6224H155.116V46.0262C155.116 46.7403 155.484 47.2988 156.27 47.2988C156.976 47.2988 157.447 46.7332 157.447 46.019V43.6238V43.6224Z" fill="#FFE664"/>
<path d="M161.138 43.968C160.478 43.8424 159.677 44.2123 159.677 45.3978V47.5659H159.285V43.6224H159.677V44.4465C159.881 43.8809 160.447 43.4653 161.138 43.5753V43.968Z" fill="#FFE664"/>
<path d="M163.607 43.5281C164.776 43.5281 165.499 44.5022 165.483 45.6491H161.981C162.013 46.5918 162.751 47.3059 163.763 47.3059C164.335 47.3059 164.878 47.0931 165.255 46.6932V47.1245C164.871 47.463 164.328 47.6587 163.74 47.6587C162.508 47.6587 161.604 46.7403 161.604 45.5934C161.604 44.4465 162.507 43.5281 163.606 43.5281H163.607ZM161.998 45.3263H165.092C165.013 44.5251 164.472 43.8738 163.609 43.8738C162.792 43.8738 162.125 44.4937 162 45.3263H161.998Z" fill="#FFE664"/>
<path d="M24.3531 0L0.549927 13.75V41.25L24.3531 55L48.1576 41.25V13.75L24.3531 0ZM22.9883 50.8137L14.5286 45.9262L22.9883 41.0386V50.8123V50.8137ZM22.9883 37.885L11.7977 44.3494L3.49213 39.5518L22.9869 28.2884V37.885H22.9883ZM22.9883 26.7116L3.49498 15.4511L11.8048 10.6506L22.9897 17.1122V26.7116H22.9883ZM22.9883 13.9585L14.5343 9.07526L22.9883 4.19199V13.9585ZM25.7192 4.19056L34.1732 9.07383L25.7192 13.9571V4.19199V4.19056ZM25.7192 17.1122L36.9042 10.6506L45.214 15.4511L31.4452 23.4051L25.7207 26.7116V17.1122H25.7192ZM25.7192 50.8137V41.04L34.1804 45.9276L25.7192 50.8152V50.8137ZM45.2154 39.5518L36.9099 44.3494L25.7192 37.885V28.2884L45.2154 39.5504V39.5518Z" fill="#FFE664"/>
</g>
</g>
<defs>
<clipPath id="clip0_2012_4686">
<rect width="179.85" height="55" fill="white"/>
</clipPath>
<clipPath id="clip1_2012_4686">
<rect width="179.3" height="55" fill="white" transform="translate(0.549927)"/>
</clipPath>
</defs>
</svg>
